#N struct 1010-array float x array bars 1010-bar 400 array regions 1010-region 3 array fgregions 1010-region 1;
#N struct 1010-bar float pos float min float max float width float color;
#N struct 1010-region float x1 float x2 float y float width float color;
#N canvas 986 19 500 414 12;
#N canvas 729 41 570 351 template-bar 0;
#X obj 78 72 struct \$0-bar float pos float min float max float width float color;
#X obj 77 119 drawpolygon -x color width pos min pos max;
#X restore 10 31 pd template-bar;
#N canvas 538 358 640 331 template-array 0;
#X obj 22 188 tgl 20 0 empty empty empty 0 -10 0 12 #fcfcfc #000000 #000000 0 1;
#X obj 22 124 tgl 20 0 empty empty empty 0 -10 0 12 #fcfcfc #000000 #000000 0 1;
#X text 184 72 fgregions: 0=index;
#X obj 21 244 tgl 20 0 empty empty empty 0 -10 0 12 #fcfcfc #000000 #000000 0 1;
#X obj 22 149 plot regions 0 0 0 0 0;
#X obj 22 213 plot bars 0 0 0 0 0;
#X obj 21 269 plot fgregions 0 0 0 0 0;
#X text 171 118 creation order:;
#X text 202 150 1;
#X text 201 211 2;
#X text 202 270 3;
#X obj 22 25 struct \$0-array float x array bars \$0-bar 400 array regions \$0-region 3 array fgregions \$0-region 1, f 72;
#X text 184 58 regions: 0=scrollbar 1=selection 2=scrollbar_bg;
#X connect 0 0 5 0;
#X connect 1 0 4 0;
#X connect 3 0 6 0;
#X restore 261 31 pd template-array;
#X obj 13 200 hsl 195 140 0 1 0 0 \$0-scroll-slide-snd \$0-scroll-slide-rcv empty -2 -10 0 12 #fefefe #fefefe #fefefe 0 1;
#N canvas 0 0 518 433 init-display 0;
#X obj 318 188 pointer;
#X obj 318 137 symbol pd-\$0-display;
#X msg 318 164 traverse \$1 \, bang;
#X msg 372 84 clear;
#X obj 372 109 s pd-\$0-display;
#X msg 202 191 0;
#X obj 32 32 bng 20 250 50 0 empty empty empty 0 -10 0 12 #fcfcfc #000000 #000000;
#X obj 202 216 append \$0-array x;
#X obj 32 401 s \$0-initpointers;
#X obj 32 6 loadbang;
#X text 99 7 init display;
#X obj 116 238 list \$2 \$3;
#X obj 116 263 unpack f f;
#X obj 116 288 sel 0;
#X msg 116 313 400;
#X obj 32 59 t a b b b b, f 49;
#X obj 116 338 pack f f;
#X obj 183 286 sel 0;
#X msg 183 311 200;
#X obj 116 363 s \$0-size;
#X connect 0 0 7 1;
#X connect 1 0 2 0;
#X connect 2 0 0 0;
#X connect 3 0 4 0;
#X connect 5 0 7 0;
#X connect 6 0 15 0;
#X connect 9 0 6 0;
#X connect 11 0 12 0;
#X connect 12 0 13 0;
#X connect 12 1 17 0;
#X connect 13 0 14 0;
#X connect 13 1 16 0;
#X connect 14 0 16 0;
#X connect 15 0 8 0;
#X connect 15 1 11 0;
#X connect 15 2 5 0;
#X connect 15 3 1 0;
#X connect 15 4 3 0;
#X connect 16 0 19 0;
#X connect 17 0 18 0;
#X connect 17 1 16 1;
#X connect 18 0 16 1;
#X restore 12 90 pd init-display;
#N canvas 316 331 986 460 show_select 0;
#X obj 242 124 s \$0-select;
#X obj 247 18 hsl 170 20 0 1 0 0 empty empty empty -2 -10 0 12 #fcfcfc #000000 #000000 0 1;
#X obj 247 41 hsl 170 20 0 1 0 0 empty empty empty -2 -10 0 12 #fcfcfc #000000 #000000 0 1;
#X obj 243 100 pack f f;
#X obj 244 66 t b f;
#X obj 483 22 r \$0-initpointers;
#X obj 834 168 pointer;
#X obj 834 117 symbol pd-\$0-display;
#X msg 834 143 traverse \$1 \, next;
#X obj 613 21 bng 20 250 50 0 empty empty empty 0 -10 0 12 #fcfcfc #000000 #000000;
#X obj 669 196 element \$0-array regions;
#X obj 669 93 t b b, f 24;
#X obj 483 47 t b b, f 27;
#X obj 483 223 set \$0-region color y width;
#X msg 669 169 1;
#X obj 482 350 set \$0-region x1 x2;
#X obj 482 266 r \$0-select-relative;
#X obj 482 293 unpack f f;
#X obj 482 321 clip 0 1;
#X obj 549 320 clip 0 1;
#X obj 20 148 until;
#X obj 20 173 i;
#X obj 57 173 + 1;
#X msg 65 148 0;
#X obj 20 123 t f b f, f 14;
#X obj 311 385 pointer;
#X obj 311 334 symbol pd-\$0-display;
#X msg 311 360 traverse \$1 \, next;
#X obj 311 309 r \$0-initpointers;
#X obj 129 171 unpack f f;
#X obj 20 198 t f f, f 9;
#X obj 20 225 /, f 14;
#X obj 20 255 t f f;
#X obj 20 283 >=;
#X obj 52 283 <=;
#X obj 20 44 t b a, f 16;
#X obj 20 308 &&, f 5;
#X obj 20 418 array set -s \$0-array bars -f \$0-bar color;
#X obj 20 333 sel 0 1, f 10;
#X obj 287 310 bng 20 250 50 0 empty empty empty 0 -10 0 12 #fcfcfc #000000 #000000;
#X obj 20 71 del 1;
#X obj 68 71 b;
#X obj 20 17 r \$0-select-relative;
#X msg 579 184 700 0.02 1;
#X obj 20 97 f 400;
#X obj 63 97 r \$0-width;
#X obj 483 130 f 190;
#X obj 515 79 r \$0-height;
#X obj 20 389 f 0;
#X obj 53 359 f 666;
#X obj 483 157 list prepend 333;
#X msg 483 183 \$1 0.02 \$2;
#X obj 592 132 r \$0-color-selbg;
#X obj 97 359 r \$0-color-barsel;
#X obj 51 388 r \$0-color-bar;
#X obj 515 105 * 0.95;
#X connect 1 0 3 0;
#X connect 2 0 4 0;
#X connect 3 0 0 0;
#X connect 4 0 3 0;
#X connect 4 1 3 1;
#X connect 5 0 12 0;
#X connect 6 0 10 1;
#X connect 7 0 8 0;
#X connect 8 0 6 0;
#X connect 9 0 12 0;
#X connect 10 0 13 3;
#X connect 10 0 15 2;
#X connect 11 0 14 0;
#X connect 11 1 7 0;
#X connect 12 0 46 0;
#X connect 12 1 11 0;
#X connect 14 0 10 0;
#X connect 16 0 17 0;
#X connect 17 0 18 0;
#X connect 17 1 19 0;
#X connect 18 0 15 0;
#X connect 19 0 15 1;
#X connect 20 0 21 0;
#X connect 21 0 22 0;
#X connect 21 0 30 0;
#X connect 22 0 21 1;
#X connect 23 0 21 1;
#X connect 24 0 20 0;
#X connect 24 1 23 0;
#X connect 24 2 31 1;
#X connect 25 0 37 2;
#X connect 26 0 27 0;
#X connect 27 0 25 0;
#X connect 28 0 26 0;
#X connect 29 0 33 1;
#X connect 29 1 34 1;
#X connect 30 0 31 0;
#X connect 30 1 37 1;
#X connect 31 0 32 0;
#X connect 32 0 33 0;
#X connect 32 1 34 0;
#X connect 33 0 36 0;
#X connect 34 0 36 1;
#X connect 35 0 40 0;
#X connect 35 1 29 0;
#X connect 36 0 38 0;
#X connect 38 0 48 0;
#X connect 38 1 49 0;
#X connect 39 0 26 0;
#X connect 40 0 44 0;
#X connect 41 0 40 0;
#X connect 42 0 35 0;
#X connect 43 0 13 0;
#X connect 44 0 24 0;
#X connect 45 0 44 1;
#X connect 46 0 50 0;
#X connect 47 0 55 0;
#X connect 48 0 37 0;
#X connect 49 0 37 0;
#X connect 50 0 51 0;
#X connect 51 0 13 0;
#X connect 52 0 50 1;
#X connect 53 0 49 1;
#X connect 54 0 48 1;
#X connect 55 0 46 1;
#X restore 315 111 pd show_select;
#N canvas 1322 415 553 304 template-region 0;
#X obj 46 87 tgl 20 0 empty empty empty 0 -10 0 12 #fcfcfc #000000 #000000 0 1;
#X obj 44 31 struct \$0-region float x1 float x2 float y float width float color;
#X obj 46 122 drawpolygon -x color width x1 y x2 y;
#X connect 0 0 2 0;
#X restore 125 31 pd template-region;
#N canvas 57 162 1052 331 update-scrollregion 0;
#X obj 363 202 pointer;
#X obj 363 151 symbol pd-\$0-display;
#X msg 363 177 traverse \$1 \, next;
#X obj 19 114 unpack f f;
#X obj 51 165 +, f 5;
#X obj 19 140 t f f;
#X obj 363 123 r \$0-initpointers;
#X obj 549 18 r \$0-initpointers;
#X obj 900 144 pointer;
#X obj 900 93 symbol pd-\$0-display;
#X msg 900 119 traverse \$1 \, next;
#X obj 679 17 bng 20 250 50 0 empty empty empty 0 -10 0 12 #fcfcfc #000000 #000000;
#X msg 735 145 0;
#X obj 735 172 element \$0-array regions;
#X obj 735 69 t b b, f 24;
#X obj 549 43 t b b, f 27;
#X obj 51 236 array set -s \$0-array regions -f \$0-region x2;
#X obj 19 287 array set -s \$0-array regions -f \$0-region x1;
#X obj 549 231 set \$0-region color y width;
#X obj 549 119 list prepend 555;
#X obj 591 88 r \$0-color-scroll;
#X obj 678 114 r \$0-height;
#X obj 549 174 list append 10;
#X obj 678 139 / 20;
#X msg 549 204 \$1 -0.475 \$2;
#X floatatom 678 164 5 0 0 0 - - - 0;
#X obj 108 76 r \$0-width;
#X obj 108 126 /;
#X obj 51 189 +;
#X obj 19 190 -;
#X msg 108 101 3 \$1;
#X obj 51 213 clip 0 1;
#X obj 19 263 clip 0 1;
#X obj 19 15 r \$0-startzoom;
#X obj 19 65 del 1;
#X obj 19 90 list, f 6;
#X obj 19 40 t b a, f 6;
#X connect 0 0 16 2;
#X connect 0 0 17 2;
#X connect 1 0 2 0;
#X connect 2 0 0 0;
#X connect 3 0 5 0;
#X connect 3 1 4 1;
#X connect 4 0 28 0;
#X connect 5 0 29 0;
#X connect 5 1 4 0;
#X connect 6 0 1 0;
#X connect 7 0 15 0;
#X connect 8 0 13 1;
#X connect 9 0 10 0;
#X connect 10 0 8 0;
#X connect 11 0 15 0;
#X connect 12 0 13 0;
#X connect 13 0 18 3;
#X connect 14 0 12 0;
#X connect 14 1 9 0;
#X connect 15 0 19 0;
#X connect 15 1 14 0;
#X connect 19 0 22 0;
#X connect 20 0 19 1;
#X connect 21 0 23 0;
#X connect 22 0 24 0;
#X connect 23 0 22 1;
#X connect 23 0 25 0;
#X connect 24 0 18 0;
#X connect 26 0 30 0;
#X connect 27 0 28 1;
#X connect 27 0 29 1;
#X connect 28 0 31 0;
#X connect 29 0 32 0;
#X connect 30 0 27 0;
#X connect 31 0 16 0;
#X connect 32 0 17 0;
#X connect 33 0 36 0;
#X connect 34 0 35 0;
#X connect 35 0 3 0;
#X connect 36 0 34 0;
#X connect 36 1 35 1;
#X restore 315 134 pd update-scrollregion;
#N canvas 27 148 621 401 size 0;
#X msg 104 155 goprect 0 0 \$1 \$2;
#X obj 104 182 s pd-\$0-display;
#X obj 28 47 s \$0-size;
#X obj 26 76 r \$0-size;
#X obj 58 130 t a a a;
#X obj 81 246 s \$0-canvas;
#X obj 58 294 unpack f f, f 12;
#X obj 58 319 s \$0-width;
#X obj 139 319 s \$0-height;
#X msg 247 193 size \$1 \$2;
#X msg 28 22 200 100;
#X obj 247 116 unpack f f;
#X obj 247 166 pack f f, f 10;
#X obj 247 141 - 5;
#X obj 26 365 s \$0-initpointers;
#X obj 26 341 bng 20 250 50 0 empty empty empty 0 -10 0 12 #fcfcfc #000000 #000000;
#X obj 26 103 t b a;
#X obj 423 329 pointer;
#X obj 423 278 symbol pd-\$0-display;
#X msg 423 304 traverse \$1 \, next;
#X obj 279 356 setsize \$0-array bars;
#X obj 279 254 t f b, f 21;
#X msg 167 21 800 100;
#X obj 247 217 s \$0-scroll-slide-rcv;
#X msg 94 21 400 180;
#X msg 81 219 goprect 10 200 \$1 \$2;
#X connect 0 0 1 0;
#X connect 3 0 16 0;
#X connect 4 0 6 0;
#X connect 4 1 25 0;
#X connect 4 2 0 0;
#X connect 4 2 11 0;
#X connect 6 0 7 0;
#X connect 6 1 8 0;
#X connect 9 0 23 0;
#X connect 10 0 2 0;
#X connect 11 0 13 0;
#X connect 11 0 21 0;
#X connect 11 1 12 1;
#X connect 12 0 9 0;
#X connect 13 0 12 0;
#X connect 15 0 14 0;
#X connect 16 0 15 0;
#X connect 16 1 4 0;
#X connect 17 0 20 1;
#X connect 18 0 19 0;
#X connect 19 0 17 0;
#X connect 21 0 20 0;
#X connect 21 1 18 0;
#X connect 22 0 2 0;
#X connect 24 0 2 0;
#X connect 25 0 5 0;
#X restore 12 113 pd size;
#X obj 10 6 namecanvas \$0-canvas;
#N canvas 354 127 879 673 process-bars 0;
#X obj 43 146 until;
#X obj 43 171 i;
#X obj 80 171 + 1;
#X msg 88 146 0;
#X obj 43 121 t f b f, f 11;
#X obj 43 285 *;
#X obj 95 310 /;
#X obj 43 531 - 0.01;
#X obj 117 505 + 0.01;
#X obj 43 69 t b s;
#X obj 165 172 array size;
#X obj 320 522 pointer;
#X obj 320 471 symbol pd-\$0-display;
#X obj 43 14 r \$0-table-set;
#X obj 43 608 array set -s \$0-array bars -f \$0-bar min;
#X obj 117 580 array set -s \$0-array bars -f \$0-bar max;
#X obj 43 199 t f f, f 24;
#X msg 320 497 traverse \$1 \, next;
#X obj 43 226 /, f 9;
#X obj 175 242 * 1;
#X obj 43 310 + 0;
#X obj 140 242 *;
#X obj 516 401 hsl 250 20 0 1 0 0 empty empty empty -2 -10 0 12 #fcfcfc #000000 #000000 0 1;
#X obj 200 83 del 1;
#X obj 515 454 hsl 250 20 1 1000 1 0 empty empty empty -2 -10 0 12 #fcfcfc #000000 #000000 0 1;
#X obj 512 479 list prepend 1;
#X obj 512 504 /;
#X obj 512 528 s \$0-zoom;
#X obj 513 427 s \$0-scroll;
#X obj 200 58 b;
#X obj 320 446 r \$0-initpointers;
#X obj 117 529 * 0.94;
#X obj 43 556 * 0.94;
#X obj 411 18 table \$0-nultab 1;
#X obj 43 42 symbol \$0-nultab;
#X obj 43 582 + 0.04;
#X obj 117 555 + 0.04;
#X obj 43 94 f 400, f 9;
#X obj 103 69 r \$0-width;
#X obj 451 281 array set -s \$0-array bars -f \$0-bar pos;
#X obj 451 177 until;
#X obj 451 202 i;
#X obj 488 202 + 1;
#X msg 496 177 0;
#X obj 451 227 t f f, f 20;
#X obj 451 252 / 1, f 13;
#X obj 722 246 pointer;
#X obj 722 195 symbol pd-\$0-display;
#X msg 722 222 traverse \$1 \, next;
#X obj 451 152 t f b f b, f 20;
#X obj 431 336 array set -s \$0-array bars -f \$0-bar width;
#X text 449 106 init positions and width;
#X msg 431 310 1;
#X obj 451 127 f 400;
#X obj 494 127 r \$0-width;
#X obj 451 83 r \$0-initpointers;
#X text 449 63 init bars for geometry;
#X obj 147 460 route main;
#X obj 43 481 unpack f f, f 11;
#X obj 43 457 t a a, f 11;
#X obj 43 336 pack f f f f, f 23;
#X obj 148 310 unpack f f;
#X msg 148 283 0 0;
#X obj 249 18 r \$0-startzoom;
#X obj 249 195 unpack f f;
#X obj 43 361 list append \$0-drawbars-minmax-rtn;
#X obj 43 386 s, f 36;
#X msg 292 360 symbol \$1-get_minmax;
#X obj 292 286 r \$0-linked-wavview;
#X obj 292 311 sel 0;
#X obj 292 336 f \$0;
#X obj 43 430 r \$0-drawbars-minmax-rtn;
#X connect 0 0 1 0;
#X connect 1 0 2 0;
#X connect 1 0 16 0;
#X connect 2 0 1 1;
#X connect 3 0 1 1;
#X connect 4 0 0 0;
#X connect 4 1 3 0;
#X connect 4 1 10 0;
#X connect 4 2 18 1;
#X connect 4 2 6 1;
#X connect 5 0 20 0;
#X connect 6 0 60 1;
#X connect 7 0 32 0;
#X connect 8 0 31 0;
#X connect 9 0 37 0;
#X connect 9 1 10 1;
#X connect 9 1 62 0;
#X connect 10 0 19 0;
#X connect 10 0 21 0;
#X connect 11 0 15 2;
#X connect 11 0 14 2;
#X connect 12 0 17 0;
#X connect 13 0 34 0;
#X connect 16 0 18 0;
#X connect 16 1 14 1;
#X connect 16 1 15 1;
#X connect 17 0 11 0;
#X connect 18 0 5 0;
#X connect 19 0 5 1;
#X connect 19 0 6 0;
#X connect 20 0 60 0;
#X connect 21 0 20 1;
#X connect 22 0 28 0;
#X connect 23 0 34 0;
#X connect 24 0 25 0;
#X connect 25 0 26 0;
#X connect 26 0 27 0;
#X connect 29 0 23 0;
#X connect 30 0 12 0;
#X connect 31 0 36 0;
#X connect 32 0 35 0;
#X connect 34 0 9 0;
#X connect 35 0 14 0;
#X connect 36 0 15 0;
#X connect 37 0 4 0;
#X connect 38 0 37 1;
#X connect 40 0 41 0;
#X connect 41 0 42 0;
#X connect 41 0 44 0;
#X connect 42 0 41 1;
#X connect 43 0 41 1;
#X connect 44 0 45 0;
#X connect 44 1 39 1;
#X connect 44 1 50 1;
#X connect 45 0 39 0;
#X connect 45 0 52 0;
#X connect 46 0 39 2;
#X connect 46 0 50 2;
#X connect 47 0 48 0;
#X connect 48 0 46 0;
#X connect 49 0 40 0;
#X connect 49 1 43 0;
#X connect 49 2 45 1;
#X connect 49 3 47 0;
#X connect 52 0 50 0;
#X connect 53 0 49 0;
#X connect 54 0 53 1;
#X connect 55 0 53 0;
#X connect 58 0 7 0;
#X connect 58 1 8 0;
#X connect 59 0 58 0;
#X connect 59 1 61 0;
#X connect 60 0 65 0;
#X connect 61 0 60 2;
#X connect 61 1 60 3;
#X connect 62 0 61 0;
#X connect 63 0 64 0;
#X connect 63 0 29 0;
#X connect 64 0 21 1;
#X connect 64 1 19 1;
#X connect 65 0 66 0;
#X connect 67 0 66 1;
#X connect 68 0 69 0;
#X connect 69 0 70 0;
#X connect 69 1 67 0;
#X connect 70 0 67 0;
#X connect 71 0 59 0;
#X restore 315 88 pd process-bars;
#N canvas 94 182 799 278 index 0;
#X obj 277 22 r \$0-initpointers;
#X obj 628 148 pointer;
#X obj 628 97 symbol pd-\$0-display;
#X msg 628 123 traverse \$1 \, next;
#X obj 407 21 bng 20 250 50 0 empty empty empty 0 -10 0 12 #fcfcfc #000000 #000000;
#X obj 463 73 t b b, f 24;
#X obj 277 47 t b b, f 27;
#X obj 277 235 set \$0-region color y width;
#X obj 406 118 r \$0-height;
#X obj 277 178 list append 10;
#X floatatom 406 168 5 0 0 0 - - - 0;
#X obj 319 92 r \$0-color-index;
#X obj 277 123 list prepend 700;
#X obj 406 143 * 0.95;
#X msg 277 208 \$1 0.02 \$2;
#X obj 28 21 r \$0-index;
#X obj 515 14 hsl 170 20 0 1 0 0 empty empty empty -2 -10 0 12 #fcfcfc #000000 #000000 0 1;
#X obj 512 39 s \$0-index;
#X obj 28 224 set \$0-region x1 x2;
#X obj 28 194 clip 0 1;
#X obj 93 195 clip 0 1;
#X obj 28 90 -;
#X obj 28 115 /, f 15;
#X obj 102 48 b;
#X obj 28 46 f;
#X obj 57 47 del 1;
#X obj 28 139 t f f, f 9;
#X obj 93 170 + 0.01, f 8;
#X obj 146 90 r \$0-width;
#X obj 146 140 /;
#X msg 146 115 2 \$1;
#X msg 188 115 400;
#X msg 626 42 -1;
#X obj 463 176 element \$0-array fgregions;
#X msg 463 149 0;
#X obj 148 39 r \$0-startzoom;
#X obj 63 90 unpack f f;
#X connect 0 0 6 0;
#X connect 1 0 33 1;
#X connect 2 0 3 0;
#X connect 3 0 1 0;
#X connect 4 0 6 0;
#X connect 5 0 34 0;
#X connect 5 1 2 0;
#X connect 6 0 12 0;
#X connect 6 1 5 0;
#X connect 8 0 13 0;
#X connect 9 0 14 0;
#X connect 11 0 12 1;
#X connect 12 0 9 0;
#X connect 13 0 9 1;
#X connect 13 0 10 0;
#X connect 14 0 7 0;
#X connect 15 0 24 0;
#X connect 16 0 17 0;
#X connect 19 0 18 0;
#X connect 20 0 18 1;
#X connect 21 0 22 0;
#X connect 22 0 26 0;
#X connect 23 0 25 0;
#X connect 24 0 21 0;
#X connect 25 0 24 0;
#X connect 26 0 19 0;
#X connect 26 1 27 0;
#X connect 27 0 20 0;
#X connect 28 0 30 0;
#X connect 29 0 27 1;
#X connect 30 0 29 0;
#X connect 31 0 30 0;
#X connect 32 0 17 0;
#X connect 33 0 7 3;
#X connect 33 0 18 2;
#X connect 34 0 33 0;
#X connect 35 0 36 0;
#X connect 35 0 23 0;
#X connect 36 0 21 1;
#X connect 36 1 22 1;
#X restore 315 157 pd index;
#N canvas 502 67 775 765 mouse_interaction 0;
#X msg 198 451 set 0.5;
#X obj 127 425 - 0.5;
#X obj 358 478 * 1, f 7;
#X obj 358 504 +, f 9;
#X obj 358 529 clip 0 1;
#X obj 358 554 s \$0-scroll;
#X obj 418 478 r \$0-scroll;
#X obj 404 350 r \$0-zoom;
#X obj 21 14 keyname, f 12;
#X obj 21 39 list prepend;
#X obj 21 64 list trim;
#X obj 21 114 change;
#X obj 21 139 tgl 20 0 empty empty empty 0 -10 0 12 #fcfcfc #000000 #000000 0 1;
#X obj 21 89 route Shift_L Shift_R Control_L Control_R;
#X obj 163 114 change;
#X obj 163 139 tgl 20 0 empty empty empty 0 -10 0 12 #fcfcfc #000000 #000000 0 1;
#X obj 20 329 list prepend 0;
#X obj 20 356 route 0 1, f 22;
#X obj 163 164 s \$0-control_key;
#X obj 21 163 s \$0-shift_key;
#X obj 127 569 * 1, f 7;
#X obj 173 543 r \$0-zoom;
#X obj 127 482 * 394;
#X obj 127 538 pow;
#X msg 127 512 2 \$1;
#X obj 127 645 s \$0-zoom;
#X obj 404 376 t f f;
#X obj 404 451 /, f 5;
#X obj 436 400 * -1;
#X obj 436 425 + 1;
#X obj 115 295 r \$0-shift_key;
#X obj 20 227 list prepend 0, f 23;
#X obj 178 201 r \$0-control_key;
#X obj 20 252 route 0 1, f 88;
#X text 332 342 scroll;
#X text 103 376 zoom;
#X text 27 376 select;
#X msg 260 453 steady \$1;
#X obj 198 388 t f f, f 6;
#X obj 126 33 loadbang;
#X msg 126 58 0;
#X obj 20 710 *;
#X obj 20 735 +;
#X obj 20 674 t f f, f 32;
#X obj 130 967 unpack f f;
#X obj 20 1035 pack f f;
#X obj 20 884 list prepend 0;
#X obj 20 1008 f;
#X obj 69 952 t b f;
#X obj 130 942 r \$0-select;
#X obj 20 1060 unpack f f, f 11;
#X obj 20 1085 t f f, f 8;
#X obj 20 1136 pack f f;
#X obj 73 1110 max;
#X obj 20 936 t f f, f 6;
#X obj 361 859 unpack f f;
#X obj 361 737 r \$0-select;
#X obj 361 884 -;
#X obj 361 909 /;
#X obj 428 883 -;
#X obj 428 908 /;
#X obj 241 702 t f f, f 7;
#X obj 241 727 -;
#X obj 241 777 * 394;
#X obj 241 752 abs;
#X msg 241 827 0;
#X obj 294 826 b;
#X obj 294 851 f;
#X obj 294 876 -;
#X obj 294 926 * 394;
#X obj 294 901 abs;
#X msg 294 976 1;
#X msg 347 976 2;
#X obj 20 910 route 2 1 0;
#X obj 361 826 pack f f;
#X obj 375 767 b;
#X obj 375 793 del 0;
#X obj 241 802 moses 30;
#X obj 294 951 moses 30;
#X text 258 667 test proximity with each bound;
#X text 340 684 scale 'select' for current scrollregion;
#X text 357 951 threshold in pixels;
#X obj 489 70 s \$0-scroll;
#X obj 579 71 s \$0-zoom;
#X msg 489 45 0;
#X msg 579 47 1;
#X msg 658 45 0 0;
#X obj 658 70 s \$0-select;
#X obj 260 429 == 1;
#X obj 198 415 sel 1;
#X obj 358 422 - 0.5;
#X obj 358 450 * -1;
#X obj 326 365 t b f;
#X obj 95 400 t b f;
#X text 27 272 select/zoom;
#X obj 127 452 * -2;
#X obj 489 20 r \$0-initpointers;
#X obj 326 585 r \$0-width;
#X text 356 608 slider real excursion width;
#X obj 20 203 r \$0-scroll-slide-snd;
#X obj 198 484 s \$0-scroll-slide-rcv;
#X obj 326 299 list prepend 0, f 18;
#X obj 449 276 r \$0-shift_key;
#X obj 326 322 route 0 1, f 58;
#X text 533 342 index;
#X obj 238 297 t b f;
#X obj 198 353 !=;
#X obj 229 352 tgl 20 0 empty empty empty 0 -10 0 12 #fcfcfc #000000 #000000 0 1;
#X obj 527 383 *;
#X obj 527 408 +;
#X obj 527 490 s \$0-index;
#X msg 538 438 index \$1;
#X obj 538 463 s \$1-info;
#X obj 445 583 s \$1-info;
#X msg 445 559 scroll \$1;
#X obj 197 646 s \$1-info;
#X msg 197 622 zoom \$1;
#X obj 127 594 clip 0.0001 1;
#X obj 332 47 t b s, f 10;
#X obj 332 19 r \$0-table-set;
#X obj 392 99 r \$0-width;
#X obj 332 72 array size;
#X obj 332 124 / 400, f 9;
#X msg 332 149 1 \$1;
#X obj 332 173 /;
#X obj 332 198 / 20;
#X text 14 1377 bottom;
#X obj 20 1161 t b a, f 11;
#X obj 20 1186 del 20;
#X obj 20 1211 list, f 11;
#X obj 20 1291 s \$0-select;
#X obj 37 1263 s \$1-info;
#X msg 37 1239 select \$1 \$2;
#X text 105 905 close to:;
#X text 106 918 0=start 1=end 2=none;
#X text 367 194 min zoom factor (20 pixels/sample), f 18;
#X text 330 274 scroll/index;
#X obj 563 382 r \$0-startzoom;
#X obj 563 407 unpack f f;
#X obj 446 774 r \$0-startzoom;
#X obj 446 799 unpack f f;
#X obj 53 712 r \$0-startzoom;
#X obj 53 737 unpack f f;
#X obj 326 610 - 5;
#X connect 0 0 100 0;
#X connect 1 0 95 0;
#X connect 2 0 3 0;
#X connect 3 0 4 0;
#X connect 4 0 5 0;
#X connect 4 0 114 0;
#X connect 6 0 3 1;
#X connect 7 0 26 0;
#X connect 8 0 9 0;
#X connect 8 1 9 1;
#X connect 9 0 10 0;
#X connect 10 0 13 0;
#X connect 11 0 12 0;
#X connect 12 0 19 0;
#X connect 13 0 11 0;
#X connect 13 1 11 0;
#X connect 13 2 14 0;
#X connect 13 3 14 0;
#X connect 14 0 15 0;
#X connect 15 0 18 0;
#X connect 16 0 17 0;
#X connect 17 0 43 0;
#X connect 17 1 93 0;
#X connect 20 0 117 0;
#X connect 21 0 20 1;
#X connect 22 0 24 0;
#X connect 23 0 20 0;
#X connect 24 0 23 0;
#X connect 26 0 27 0;
#X connect 26 1 28 0;
#X connect 27 0 2 1;
#X connect 28 0 29 0;
#X connect 29 0 27 1;
#X connect 30 0 16 1;
#X connect 30 0 106 0;
#X connect 31 0 33 0;
#X connect 32 0 31 1;
#X connect 32 0 105 0;
#X connect 33 0 16 0;
#X connect 33 1 101 0;
#X connect 37 0 100 0;
#X connect 38 0 89 0;
#X connect 38 1 88 0;
#X connect 39 0 40 0;
#X connect 40 0 15 0;
#X connect 40 0 12 0;
#X connect 41 0 42 0;
#X connect 42 0 46 0;
#X connect 43 0 41 0;
#X connect 43 1 61 0;
#X connect 44 0 47 1;
#X connect 44 1 45 1;
#X connect 45 0 50 0;
#X connect 46 0 73 0;
#X connect 47 0 45 0;
#X connect 48 0 47 0;
#X connect 48 1 45 1;
#X connect 49 0 44 0;
#X connect 50 0 51 0;
#X connect 50 1 53 1;
#X connect 51 0 52 0;
#X connect 51 1 53 0;
#X connect 52 0 127 0;
#X connect 53 0 52 1;
#X connect 54 0 47 0;
#X connect 54 1 45 1;
#X connect 55 0 57 0;
#X connect 55 1 59 0;
#X connect 56 0 74 0;
#X connect 57 0 58 0;
#X connect 58 0 68 1;
#X connect 59 0 60 0;
#X connect 60 0 62 1;
#X connect 61 0 62 0;
#X connect 61 1 67 1;
#X connect 62 0 64 0;
#X connect 63 0 77 0;
#X connect 64 0 63 0;
#X connect 65 0 46 1;
#X connect 66 0 67 0;
#X connect 67 0 68 0;
#X connect 68 0 70 0;
#X connect 69 0 78 0;
#X connect 70 0 69 0;
#X connect 71 0 46 1;
#X connect 72 0 46 1;
#X connect 73 0 54 0;
#X connect 73 1 47 0;
#X connect 73 2 48 0;
#X connect 74 0 55 0;
#X connect 75 0 76 0;
#X connect 76 0 74 0;
#X connect 77 0 65 0;
#X connect 77 1 66 0;
#X connect 78 0 71 0;
#X connect 78 1 72 0;
#X connect 84 0 82 0;
#X connect 85 0 83 0;
#X connect 86 0 87 0;
#X connect 88 0 37 0;
#X connect 89 0 0 0;
#X connect 90 0 91 0;
#X connect 91 0 2 0;
#X connect 92 0 0 0;
#X connect 92 1 90 0;
#X connect 93 0 0 0;
#X connect 93 1 1 0;
#X connect 95 0 22 0;
#X connect 96 0 84 0;
#X connect 96 0 85 0;
#X connect 96 0 86 0;
#X connect 97 0 143 0;
#X connect 99 0 31 0;
#X connect 101 0 103 0;
#X connect 102 0 101 1;
#X connect 103 0 92 0;
#X connect 103 1 108 0;
#X connect 105 0 106 0;
#X connect 105 1 106 1;
#X connect 106 0 38 0;
#X connect 106 0 107 0;
#X connect 108 0 109 0;
#X connect 109 0 110 0;
#X connect 109 0 111 0;
#X connect 111 0 112 0;
#X connect 114 0 113 0;
#X connect 116 0 115 0;
#X connect 117 0 25 0;
#X connect 117 0 116 0;
#X connect 118 0 121 0;
#X connect 118 1 121 1;
#X connect 119 0 118 0;
#X connect 120 0 122 1;
#X connect 121 0 122 0;
#X connect 122 0 123 0;
#X connect 123 0 124 0;
#X connect 124 0 125 0;
#X connect 125 0 117 1;
#X connect 127 0 128 0;
#X connect 127 1 129 1;
#X connect 127 1 74 0;
#X connect 127 1 44 0;
#X connect 128 0 129 0;
#X connect 129 0 130 0;
#X connect 129 0 132 0;
#X connect 132 0 131 0;
#X connect 137 0 138 0;
#X connect 138 0 109 1;
#X connect 138 1 108 1;
#X connect 139 0 140 0;
#X connect 139 0 75 0;
#X connect 140 0 57 1;
#X connect 140 0 59 1;
#X connect 140 1 60 1;
#X connect 140 1 58 1;
#X connect 141 0 142 0;
#X connect 142 0 42 1;
#X connect 142 1 41 1;
#X connect 143 0 69 1;
#X connect 143 0 63 1;
#X connect 143 0 22 1;
#X restore 152 136 pd mouse_interaction;
#N canvas 207 27 931 793 get_minmax 0;
#X obj 14 154 r \$0-get_minmax;
#X obj 566 72 r \$0-table-set;
#X obj 685 267 s \$0-min-1;
#X obj 763 267 s \$0-max-1;
#X msg 685 242 resize \$1;
#X msg 685 323 resize \$1;
#X obj 685 348 s \$0-min-2;
#X obj 763 348 s \$0-max-2;
#X msg 685 408 resize \$1;
#X msg 675 485 resize \$1;
#X obj 685 433 s \$0-min-3;
#X obj 763 433 s \$0-max-3;
#X obj 675 512 s \$0-min-4;
#X obj 753 510 s \$0-max-4;
#X floatatom 844 510 5 0 0 0 - - - 0;
#X floatatom 845 436 5 0 0 0 - - - 0;
#X floatatom 845 343 5 0 0 0 - - - 0;
#X floatatom 846 269 7 0 0 0 - - - 0;
#X obj 566 119 t b s, f 10;
#X obj 566 144 array size;
#N canvas 98 50 731 680 downsample 0;
#X obj 37 37 inlet;
#X obj 37 113 sel 0, f 9;
#X obj 37 187 symbol;
#X obj 76 139 r \$0-table-set;
#X obj 97 163 pack f \$0;
#X msg 97 215 symbol \$2-min-\$1;
#X msg 220 216 symbol \$2-max-\$1;
#X obj 305 139 pack f \$0;
#X obj 305 165 t a a, f 18;
#X msg 428 193 symbol \$2-max-\$1;
#X msg 305 193 symbol \$2-min-\$1;
#X obj 37 251 pack s s s s f, f 77;
#X obj 37 277 t a a, f 19;
#X msg 37 302 list \$1 \$5;
#X obj 37 327 unpack s f, f 12;
#X obj 37 352 t b s, f 10;
#X obj 37 377 array size;
#X obj 37 402 /, f 12;
#X obj 97 188 t a a, f 18;
#X obj 37 212 t s s;
#X obj 37 62 unpack f f, f 77;
#X text 35 15 source factor;
#X obj 37 88 t f f, f 38;
#X obj 300 113 + 1;
#X obj 83 451 t f b, f 7;
#X obj 83 476 until;
#X obj 83 501 i;
#X obj 117 502 + 1;
#X msg 129 475 0;
#X obj 167 302 unpack s s s s f, f 33;
#X obj 83 609 array set \$0-nultab;
#X obj 274 612 array set \$0-nultab;
#X obj 83 526 t f f, f 10;
#X floatatom 102 428 5 0 0 0 - - - 0;
#X obj 37 452 b;
#X obj 37 638 outlet stop;
#X obj 206 38 inlet table;
#X obj 37 427 moses 4;
#X obj 283 499 r \$0-downsample_factor;
#X obj 83 552 * 32, f 29;
#X obj 83 583 array min \$0-nultab 0 32;
#X obj 274 583 array max \$0-nultab 0 32;
#X connect 0 0 20 0;
#X connect 1 0 2 0;
#X connect 1 1 4 0;
#X connect 2 0 19 0;
#X connect 3 0 2 1;
#X connect 4 0 18 0;
#X connect 5 0 11 0;
#X connect 6 0 11 1;
#X connect 7 0 8 0;
#X connect 8 0 10 0;
#X connect 8 1 9 0;
#X connect 9 0 11 3;
#X connect 10 0 11 2;
#X connect 11 0 12 0;
#X connect 12 0 13 0;
#X connect 12 1 29 0;
#X connect 13 0 14 0;
#X connect 14 0 15 0;
#X connect 14 1 17 1;
#X connect 15 0 16 0;
#X connect 15 1 16 1;
#X connect 16 0 17 0;
#X connect 17 0 37 0;
#X connect 18 0 5 0;
#X connect 18 1 6 0;
#X connect 19 0 11 0;
#X connect 19 1 11 1;
#X connect 20 0 22 0;
#X connect 20 1 11 4;
#X connect 22 0 1 0;
#X connect 22 1 23 0;
#X connect 23 0 7 0;
#X connect 24 0 25 0;
#X connect 24 1 28 0;
#X connect 25 0 26 0;
#X connect 26 0 27 0;
#X connect 26 0 32 0;
#X connect 27 0 26 1;
#X connect 28 0 26 1;
#X connect 29 0 40 2;
#X connect 29 1 41 2;
#X connect 29 2 30 2;
#X connect 29 3 31 2;
#X connect 32 0 39 0;
#X connect 32 1 30 1;
#X connect 32 1 31 1;
#X connect 34 0 35 0;
#X connect 36 0 2 1;
#X connect 37 0 34 0;
#X connect 37 1 24 0;
#X connect 37 1 33 0;
#X connect 38 0 39 1;
#X connect 38 0 40 1;
#X connect 38 0 41 1;
#X connect 39 0 40 0;
#X connect 39 0 41 0;
#X connect 40 0 30 0;
#X connect 41 0 31 0;
#X restore 566 326 pd downsample;
#X obj 566 222 t f b, f 7;
#X obj 566 247 until;
#X obj 566 272 i;
#X obj 600 273 + 1;
#X msg 612 246 0;
#X msg 566 197 5;
#X obj 566 169 t b f, f 16;
#X obj 127 354 i;
#X obj 127 409 t f f, f 18;
#X obj 127 463 pow;
#X obj 250 441 sel 0, f 20;
#X obj 281 480 r \$0-table-set;
#X obj 387 473 pack f \$0;
#X msg 387 525 symbol \$2-min-\$1;
#X msg 510 526 symbol \$2-max-\$1;
#X obj 387 498 t a a, f 18;
#X obj 250 540 t s s;
#X obj 81 274 t f f, f 7;
#X obj 14 559 t f f, f 14;
#X obj 109 617 array max \$0-nultab, f 33;
#X obj 14 588 array min \$0-nultab, f 34;
#X obj 14 730 pack f f, f 14;
#X obj 14 527 / 1, f 6;
#X obj 81 490 / 1, f 7;
#X obj 738 118 r \$0-downsample_factor;
#X obj 152 212 r \$0-downsample_factor;
#X obj 281 95 s \$0-downsample_factor;
#X msg 324 62 64;
#X msg 363 62 128;
#X msg 281 61 32;
#X obj 566 297 pack f 32;
#X obj 675 213 / 32;
#X obj 675 294 / 32;
#X obj 675 379 / 32;
#X obj 675 460 / 32;
#X obj 81 248 change;
#X msg 133 248 set -1;
#X obj 127 329 log 32;
#X obj 127 438 list prepend 32;
#X obj 281 35 loadbang;
#X msg 408 60 16;
#X obj 14 630 min;
#X obj 109 644 max, f 6;
#X obj 81 382 max 1;
#X obj 127 302 / 2;
#X obj 14 696 +, f 7;
#X obj 109 700 +, f 7;
#X floatatom 180 273 5 0 0 0 - - - 0;
#X obj 127 382 clip 0 4;
#X obj 14 663 * 0.5;
#X obj 60 665 * 0.5;
#X obj 109 672 * 0.5;
#X obj 155 670 * 0.5;
#X floatatom 199 493 5 0 0 0 - - - 0;
#X obj 252 700 t f f;
#X obj 252 727 * -1;
#X obj 252 752 + 1;
#X obj 252 648 min 1;
#X obj 252 673 / 4;
#X obj 131 542 * 2;
#X obj 250 515 symbol \$0-nultab;
#X obj 250 364 clip 1 2;
#X text 281 672 remove lowpass when getting close to sample;
#X text 248 345 remove overlap when getting close to sample;
#X obj 14 182 unpack f f f f s, f 64;
#X text 6 848 bottom;
#X text 131 154 start len prev_min prev_max send_to;
#X obj 14 795 s, f 64;
#X obj 14 34 table \$0-min-1 1;
#X obj 14 56 table \$0-min-2 1;
#X obj 14 78 table \$0-min-3 1;
#X obj 14 100 table \$0-min-4 1;
#X obj 148 34 table \$0-max-1 1;
#X obj 148 56 table \$0-max-2 1;
#X obj 148 78 table \$0-max-3 1;
#X obj 148 100 table \$0-max-4 1;
#X text 13 9 Each table is downsampled by 32 from the previous one;
#X obj 766 45 r \$0-linked-wavview;
#X obj 766 70 == 0;
#X obj 566 96 spigot, f 29;
#X text 564 36 Precalc subsampled tables: (if not linked), f 27;
#X floatatom 821 75 5 0 0 0 - - - 0;
#X obj 481 703 r \$0-dummy;
#X obj 481 732 loadbang;
#X obj 481 757 symbol \$0-dummy;
#X connect 0 0 85 0;
#X connect 1 0 100 0;
#X connect 4 0 2 0;
#X connect 4 0 3 0;
#X connect 5 0 6 0;
#X connect 5 0 7 0;
#X connect 8 0 10 0;
#X connect 8 0 11 0;
#X connect 9 0 12 0;
#X connect 9 0 13 0;
#X connect 18 0 19 0;
#X connect 18 1 19 1;
#X connect 18 1 20 1;
#X connect 19 0 27 0;
#X connect 20 0 22 1;
#X connect 21 0 22 0;
#X connect 21 1 25 0;
#X connect 22 0 23 0;
#X connect 23 0 24 0;
#X connect 23 0 51 0;
#X connect 24 0 23 1;
#X connect 25 0 23 1;
#X connect 26 0 21 0;
#X connect 27 0 26 0;
#X connect 27 1 52 0;
#X connect 28 0 69 0;
#X connect 29 0 59 0;
#X connect 29 1 31 0;
#X connect 30 0 43 1;
#X connect 30 0 44 1;
#X connect 30 0 74 0;
#X connect 31 0 81 0;
#X connect 31 1 33 0;
#X connect 32 0 57 0;
#X connect 32 0 81 1;
#X connect 33 0 36 0;
#X connect 34 0 41 2;
#X connect 35 0 40 2;
#X connect 36 0 34 0;
#X connect 36 1 35 0;
#X connect 37 0 41 2;
#X connect 37 1 40 2;
#X connect 38 0 64 0;
#X connect 38 1 65 0;
#X connect 38 1 78 0;
#X connect 38 1 82 0;
#X connect 39 0 41 0;
#X connect 39 1 40 0;
#X connect 40 0 63 0;
#X connect 41 0 62 0;
#X connect 42 0 88 0;
#X connect 43 0 39 0;
#X connect 44 0 80 0;
#X connect 45 0 51 1;
#X connect 45 0 52 1;
#X connect 45 0 53 1;
#X connect 45 0 54 1;
#X connect 45 0 55 1;
#X connect 46 0 57 0;
#X connect 46 0 58 1;
#X connect 46 0 59 1;
#X connect 48 0 47 0;
#X connect 49 0 47 0;
#X connect 50 0 47 0;
#X connect 51 0 20 0;
#X connect 52 0 4 0;
#X connect 52 0 17 0;
#X connect 52 0 53 0;
#X connect 53 0 5 0;
#X connect 53 0 16 0;
#X connect 53 0 54 0;
#X connect 54 0 8 0;
#X connect 54 0 15 0;
#X connect 54 0 55 0;
#X connect 55 0 9 0;
#X connect 55 0 14 0;
#X connect 56 0 38 0;
#X connect 56 0 68 0;
#X connect 57 0 56 0;
#X connect 58 0 28 0;
#X connect 59 0 30 0;
#X connect 60 0 50 0;
#X connect 61 0 47 0;
#X connect 62 0 70 0;
#X connect 63 0 72 0;
#X connect 64 0 44 0;
#X connect 65 0 58 0;
#X connect 66 0 42 0;
#X connect 67 0 42 1;
#X connect 69 0 29 0;
#X connect 70 0 66 0;
#X connect 71 0 66 1;
#X connect 72 0 67 0;
#X connect 73 0 67 1;
#X connect 75 0 76 0;
#X connect 75 1 73 1;
#X connect 75 1 71 1;
#X connect 76 0 77 0;
#X connect 77 0 70 1;
#X connect 77 0 72 1;
#X connect 78 0 79 0;
#X connect 79 0 75 0;
#X connect 80 0 41 1;
#X connect 80 0 40 1;
#X connect 81 0 37 0;
#X connect 82 0 80 1;
#X connect 85 0 43 0;
#X connect 85 1 56 0;
#X connect 85 2 63 1;
#X connect 85 2 71 0;
#X connect 85 3 62 1;
#X connect 85 3 73 0;
#X connect 85 4 88 1;
#X connect 98 0 99 0;
#X connect 98 0 102 0;
#X connect 99 0 100 1;
#X connect 100 0 18 0;
#X connect 104 0 105 0;
#X connect 105 0 88 1;
#X restore 152 113 pd get_minmax;
#N canvas 62 19 802 705 \$0-display 0;
#X scalar 1010-array 0 \; 0 0 0 1 666 \; 0.005 0 0 1 0 \; 0.01 0 0 1 0 \; 0.015 0 0 1 0 \; 0.02 0 0 1 0 \; 0.025 0 0 1 0 \; 0.03 0 0 1 0 \; 0.035 0 0 1 0 \; 0.04 0 0 1 0 \; 0.045 0 0 1 0 \; 0.05 0 0 1 0 \; 0.055 0 0 1 0 \; 0.06 0 0 1 0 \; 0.065 0 0 1 0 \; 0.07 0 0 1 0 \; 0.075 0 0 1 0 \; 0.08 0 0 1 0 \; 0.085 0 0 1 0 \; 0.09 0 0 1 0 \; 0.095 0 0 1 0 \; 0.1 0 0 1 0 \; 0.105 0 0 1 0 \; 0.11 0 0 1 0 \; 0.115 0 0 1 0 \; 0.12 0 0 1 0 \; 0.125 0 0 1 0 \; 0.13 0 0 1 0 \; 0.135 0 0 1 0 \; 0.14 0 0 1 0 \; 0.145 0 0 1 0 \; 0.15 0 0 1 0 \; 0.155 0 0 1 0 \; 0.16 0 0 1 0 \; 0.165 0 0 1 0 \; 0.17 0 0 1 0 \; 0.175 0 0 1 0 \; 0.18 0 0 1 0 \; 0.185 0 0 1 0 \; 0.19 0 0 1 0 \; 0.195 0 0 1 0 \; 0.2 0 0 1 0 \; 0.205 0 0 1 0 \; 0.21 0 0 1 0 \; 0.215 0 0 1 0 \; 0.22 0 0 1 0 \; 0.225 0 0 1 0 \; 0.23 0 0 1 0 \; 0.235 0 0 1 0 \; 0.24 0 0 1 0 \; 0.245 0 0 1 0 \; 0.25 0 0 1 0 \; 0.255 0 0 1 0 \; 0.26 0 0 1 0 \; 0.265 0 0 1 0 \; 0.27 0 0 1 0 \; 0.275 0 0 1 0 \; 0.28 0 0 1 0 \; 0.285 0 0 1 0 \; 0.29 0 0 1 0 \; 0.295 0 0 1 0 \; 0.3 0 0 1 0 \; 0.305 0 0 1 0 \; 0.31 0 0 1 0 \; 0.315 0 0 1 0 \; 0.32 0 0 1 0 \; 0.325 0 0 1 0 \; 0.33 0 0 1 0 \; 0.335 0 0 1 0 \; 0.34 0 0 1 0 \; 0.345 0 0 1 0 \; 0.35 0 0 1 0 \; 0.355 0 0 1 0 \; 0.36 0 0 1 0 \; 0.365 0 0 1 0 \; 0.37 0 0 1 0 \; 0.375 0 0 1 0 \; 0.38 0 0 1 0 \; 0.385 0 0 1 0 \; 0.39 0 0 1 0 \; 0.395 0 0 1 0 \; 0.4 0 0 1 0 \; 0.405 0 0 1 0 \; 0.41 0 0 1 0 \; 0.415 0 0 1 0 \; 0.42 0 0 1 0 \; 0.425 0 0 1 0 \; 0.43 0 0 1 0 \; 0.435 0 0 1 0 \; 0.44 0 0 1 0 \; 0.445 0 0 1 0 \; 0.45 0 0 1 0 \; 0.455 0 0 1 0 \; 0.46 0 0 1 0 \; 0.465 0 0 1 0 \; 0.47 0 0 1 0 \; 0.475 0 0 1 0 \; 0.48 0 0 1 0 \; 0.485 0 0 1 0 \; 0.49 0 0 1 0 \; 0.495 0 0 1 0 \; 0.5 0 0 1 0 \; 0.505 0 0 1 0 \; 0.51 0 0 1 0 \; 0.515 0 0 1 0 \; 0.52 0 0 1 0 \; 0.525 0 0 1 0 \; 0.53 0 0 1 0 \; 0.535 0 0 1 0 \; 0.54 0 0 1 0 \; 0.545 0 0 1 0 \; 0.55 0 0 1 0 \; 0.555 0 0 1 0 \; 0.56 0 0 1 0 \; 0.565 0 0 1 0 \; 0.57 0 0 1 0 \; 0.575 0 0 1 0 \; 0.58 0 0 1 0 \; 0.585 0 0 1 0 \; 0.59 0 0 1 0 \; 0.595 0 0 1 0 \; 0.6 0 0 1 0 \; 0.605 0 0 1 0 \; 0.61 0 0 1 0 \; 0.615 0 0 1 0 \; 0.62 0 0 1 0 \; 0.625 0 0 1 0 \; 0.63 0 0 1 0 \; 0.635 0 0 1 0 \; 0.64 0 0 1 0 \; 0.645 0 0 1 0 \; 0.65 0 0 1 0 \; 0.655 0 0 1 0 \; 0.66 0 0 1 0 \; 0.665 0 0 1 0 \; 0.67 0 0 1 0 \; 0.675 0 0 1 0 \; 0.68 0 0 1 0 \; 0.685 0 0 1 0 \; 0.69 0 0 1 0 \; 0.695 0 0 1 0 \; 0.7 0 0 1 0 \; 0.705 0 0 1 0 \; 0.71 0 0 1 0 \; 0.715 0 0 1 0 \; 0.72 0 0 1 0 \; 0.725 0 0 1 0 \; 0.73 0 0 1 0 \; 0.735 0 0 1 0 \; 0.74 0 0 1 0 \; 0.745 0 0 1 0 \; 0.75 0 0 1 0 \; 0.755 0 0 1 0 \; 0.76 0 0 1 0 \; 0.765 0 0 1 0 \; 0.77 0 0 1 0 \; 0.775 0 0 1 0 \; 0.78 0 0 1 0 \; 0.785 0 0 1 0 \; 0.79 0 0 1 0 \; 0.795 0 0 1 0 \; 0.8 0 0 1 0 \; 0.805 0 0 1 0 \; 0.81 0 0 1 0 \; 0.815 0 0 1 0 \; 0.82 0 0 1 0 \; 0.825 0 0 1 0 \; 0.83 0 0 1 0 \; 0.835 0 0 1 0 \; 0.84 0 0 1 0 \; 0.845 0 0 1 0 \; 0.85 0 0 1 0 \; 0.855 0 0 1 0 \; 0.86 0 0 1 0 \; 0.865 0 0 1 0 \; 0.87 0 0 1 0 \; 0.875 0 0 1 0 \; 0.88 0 0 1 0 \; 0.885 0 0 1 0 \; 0.89 0 0 1 0 \; 0.895 0 0 1 0 \; 0.9 0 0 1 0 \; 0.905 0 0 1 0 \; 0.91 0 0 1 0 \; 0.915 0 0 1 0 \; 0.92 0 0 1 0 \; 0.925 0 0 1 0 \; 0.93 0 0 1 0 \; 0.935 0 0 1 0 \; 0.94 0 0 1 0 \; 0.945 0 0 1 0 \; 0.95 0 0 1 0 \; 0.955 0 0 1 0 \; 0.96 0 0 1 0 \; 0.965 0 0 1 0 \; 0.97 0 0 1 0 \; 0.975 0 0 1 0 \; 0.98 0 0 1 0 \; 0.985 0 0 1 0 \; 0.99 0 0 1 0 \; 0.995 0 0 1 0 \; \; 0 1 -0.475 7 555 \; 0 0 0.02 133 333 \; 0 0 0 0 0 \; \; 0 0.01 0.02 133 700 \; \;;
#X coords 0 1 1 -1 200 140 2 0 0;
#X restore 10 200 pd \$0-display;
#N canvas 244 454 755 353 conversions 0;
#X obj 11 169 *;
#X obj 32 138 t b f;
#X obj 32 40 r \$0-zoom;
#X obj 11 15 r \$0-scroll;
#X obj 11 219 s \$0-startzoom;
#X obj 11 194 pack f 1, f 10;
#X obj 468 8 r \$0-select;
#X obj 468 143 -;
#X obj 468 168 /;
#X obj 468 110 unpack f f;
#X obj 535 140 -;
#X obj 535 165 /;
#X obj 468 193 pack f f, f 10;
#X obj 468 34 t b a, f 7;
#X obj 468 60 del 1;
#X obj 468 85 list, f 7;
#X obj 522 59 b;
#X obj 468 218 s \$0-select-relative;
#X obj 553 33 r \$0-startzoom;
#X obj 553 60 unpack f f;
#X text 9 246 sends: start zoom;
#X text 9 264 where 'start' is the [0 \, 1] position of the start of the displayed window., f 58;
#X text 8 304 The viewer hence displays samples from (start * table_len) to ((start + zoom) * table_len).;
#X text 465 248 Convert 'select' to normalized position relatively to the current displayed window \, i.e 0=left_edge 1=right_edge, f 39;
#X obj 32 88 * -1;
#X obj 32 113 + 1;
#X obj 32 64 t f f, f 7;
#X connect 0 0 5 0;
#X connect 1 0 0 0;
#X connect 1 1 0 1;
#X connect 2 0 26 0;
#X connect 3 0 0 0;
#X connect 5 0 4 0;
#X connect 6 0 13 0;
#X connect 7 0 8 0;
#X connect 8 0 12 0;
#X connect 9 0 7 0;
#X connect 9 1 10 0;
#X connect 10 0 11 0;
#X connect 11 0 12 1;
#X connect 12 0 17 0;
#X connect 13 0 14 0;
#X connect 13 1 15 1;
#X connect 14 0 15 0;
#X connect 15 0 9 0;
#X connect 16 0 14 0;
#X connect 18 0 19 0;
#X connect 18 0 16 0;
#X connect 19 0 10 1;
#X connect 19 0 7 1;
#X connect 19 1 11 1;
#X connect 19 1 8 1;
#X connect 24 0 25 0;
#X connect 25 0 1 0;
#X connect 26 0 24 0;
#X connect 26 1 5 1;
#X restore 152 89 pd conversions;
#X text 314 67 GUI updates;
#N canvas 89 161 881 484 remote-control 0;
#X obj 27 24 r \$1-control;
#X obj 27 74 s \$0-size;
#X obj 27 230 r \$0-color-bg;
#X obj 27 382 expr -($f1 * 65536 + $f2 * 256 + $f3 + 1);
#X obj 27 255 t f f f, f 41;
#X obj 27 288 div 100;
#X obj 169 282 div 10;
#X obj 169 307 mod 10;
#X obj 311 307 mod 10;
#X obj 358 265 s \$0-color-bg;
#X msg 27 410 color \$1 \$1 \$1;
#X obj 27 343 i;
#X obj 169 357 i;
#X obj 311 358 i;
#X msg 358 234 999;
#X obj 27 313 * 28.33;
#X obj 169 332 * 28.33;
#X obj 311 332 * 28.33;
#X msg 399 235 90;
#X obj 143 149 s \$0-color-bg;
#X obj 490 148 s \$0-color-barsel;
#X obj 369 148 s \$0-color-selbg;
#X obj 256 148 s \$0-color-bar;
#X obj 618 148 s \$0-color-scroll;
#X obj 111 98 t b a;
#X obj 111 173 s \$0-initpointers;
#X obj 537 362 s \$1-control;
#X obj 538 258 loadbang;
#X obj 27 438 s \$0-scroll-slide-rcv;
#X obj 27 49 route size colors table scroll zoom index select, f 85;
#X obj 196 75 symbol;
#X obj 280 74 s \$0-scroll;
#X obj 365 74 s \$0-zoom;
#X obj 449 74 s \$0-index;
#X obj 534 75 s \$0-select;
#X obj 749 148 s \$0-color-index;
#X obj 143 123 unpack f f f f f f, f 86;
#X msg 537 337 colors 999 0 333 666 555 700;
#X msg 513 298 colors 30 90 60 20 70 999;
#X obj 196 98 s \$0-table-set-pre;
#X connect 0 0 29 0;
#X connect 2 0 4 0;
#X connect 3 0 10 0;
#X connect 4 0 5 0;
#X connect 4 1 6 0;
#X connect 4 2 8 0;
#X connect 5 0 15 0;
#X connect 6 0 7 0;
#X connect 7 0 16 0;
#X connect 8 0 17 0;
#X connect 10 0 28 0;
#X connect 11 0 3 0;
#X connect 12 0 3 1;
#X connect 13 0 3 2;
#X connect 14 0 9 0;
#X connect 15 0 11 0;
#X connect 16 0 12 0;
#X connect 17 0 13 0;
#X connect 18 0 9 0;
#X connect 24 0 25 0;
#X connect 24 1 36 0;
#X connect 27 0 37 0;
#X connect 29 0 1 0;
#X connect 29 1 24 0;
#X connect 29 2 30 0;
#X connect 29 3 31 0;
#X connect 29 4 32 0;
#X connect 29 5 33 0;
#X connect 29 6 34 0;
#X connect 30 0 39 0;
#X connect 36 0 19 0;
#X connect 36 1 22 0;
#X connect 36 2 21 0;
#X connect 36 3 20 0;
#X connect 36 4 23 0;
#X connect 36 5 35 0;
#X connect 37 0 26 0;
#X connect 38 0 26 0;
#X restore 152 159 pd remote-control;
#X text 12 68 Setup;
#X text 152 69 Data;
#N canvas 0 0 425 142 credits 0;
#X obj 13 105 pdcontrol;
#X msg 13 79 browse https://github.com/metalunet/pd-wavview;
#X text 11 17 antoine@metalu.net 2025;
#X text 11 57 project page (report issues there):;
#X connect 1 0 0 0;
#X restore 336 5 pd credits;
#N canvas 442 43 695 397 link_to_table 0;
#X obj 43 65 pdcontrol;
#X msg 43 39 args;
#X obj 43 90 list split 3;
#X obj 83 118 route bang;
#X obj 150 195 v, f 5;
#X msg 150 142 symbol \$1-linked-wavview;
#X obj 150 167 t b s;
#X obj 43 11 loadbang;
#X obj 150 220 sel 0, f 14;
#X obj 182 295 v, f 8;
#X obj 182 271 f \$0;
#X obj 150 245 t b b;
#X obj 245 246 print error: table \$4 is already linked by another wavview;
#X obj 150 351 s \$0-linked_table;
#X obj 150 326 symbol \$4;
#X connect 0 0 2 0;
#X connect 1 0 0 0;
#X connect 2 1 3 0;
#X connect 3 1 5 0;
#X connect 4 0 8 0;
#X connect 5 0 6 0;
#X connect 6 0 4 0;
#X connect 6 1 4 1;
#X connect 6 1 9 1;
#X connect 7 0 1 0;
#X connect 8 0 11 0;
#X connect 8 1 12 0;
#X connect 10 0 9 0;
#X connect 11 0 14 0;
#X connect 11 1 10 0;
#X connect 14 0 13 0;
#X restore 12 136 pd link_to_table;
#N canvas 29 122 399 247 table_is_linked 0;
#X obj 27 217 s \$0-table-set;
#X obj 27 15 r \$0-table-set-pre;
#X obj 27 40 t s s;
#X obj 59 92 t b s;
#X obj 59 116 v, f 5;
#X msg 59 65 symbol \$1-linked-wavview;
#X obj 59 191 s \$0-linked-wavview;
#X floatatom 164 107 5 0 0 0 - - - 0;
#X obj 59 141 sel \$0;
#X msg 59 166 0;
#X obj 221 141 loadbang;
#X obj 221 192 s \$0-linked-wavview;
#X msg 221 167 0;
#X connect 1 0 2 0;
#X connect 2 0 0 0;
#X connect 2 1 5 0;
#X connect 3 0 4 0;
#X connect 3 1 4 1;
#X connect 4 0 7 0;
#X connect 4 0 8 0;
#X connect 5 0 3 0;
#X connect 8 0 9 0;
#X connect 8 1 6 0;
#X connect 9 0 6 0;
#X connect 10 0 12 0;
#X connect 12 0 11 0;
#X restore 12 159 pd table_is_linked;
#X coords 0 -1 1 1 200 140 2 10 200;
